<svg width="250" height="194" viewBox="0 0 250 194" fill="none" xmlns="http://www.w3.org/2000/svg">
<g filter="url(#filter0_d_12_280)">
<rect y="2.56477" width="122" height="122" rx="10" transform="matrix(0.904034 0.427461 -0.904034 0.427461 127.319 1.46843)" fill="#BDCBFD" stroke="white" stroke-width="6"/>
<rect width="101.763" height="54.3954" transform="matrix(0.903956 0.427625 0 1 21.5117 59.835)" fill="#93AAFC"/>
<rect width="101.763" height="54.3954" transform="matrix(0.903956 -0.427625 0 1 136.498 103.351)" fill="#6580E1"/>
<path d="M16.749 54.3954C16.749 56.5197 18.5694 58.4429 21.5125 59.835V114.23C18.5694 112.838 16.749 110.915 16.749 108.791V54.3954Z" fill="#93AAFC"/>
<path d="M113.501 103.351C119.851 106.356 130.148 106.356 136.498 103.351V157.747C130.148 160.751 119.851 160.751 113.501 157.747V103.351Z" fill="#6580E1" stroke="white"/>
<path d="M233.251 54.3954C233.251 56.5197 231.43 58.4429 228.487 59.835V114.23C231.43 112.838 233.251 110.915 233.251 108.791V54.3954Z" fill="#6580E1"/>
</g>
<defs>
<filter id="filter0_d_12_280" x="-6" y="0" width="262" height="193.5" filterUnits="userSpaceOnUse" color-interpolation-filters="sRGB">
<feFlood flood-opacity="0" result="BackgroundImageFix"/>
<feColorMatrix in="SourceAlpha" type="matrix" values="0 0 0 0 0 0 0 0 0 0 0 0 0 0 0 0 0 0 127 0" result="hardAlpha"/>
<feOffset dy="17"/>
<feGaussianBlur stdDeviation="8"/>
<feComposite in2="hardAlpha" operator="out"/>
<feColorMatrix type="matrix" values="0 0 0 0 0 0 0 0 0 0.501961 0 0 0 0 0.501961 0 0 0 1 0"/>
<feBlend mode="normal" in2="BackgroundImageFix" result="effect1_dropShadow_12_280"/>
<feBlend mode="normal" in="SourceGraphic" in2="effect1_dropShadow_12_280" result="shape"/>
</filter>
</defs>
</svg>
