<svg width="24" height="24" viewBox="0 0 24 24" fill="none" xmlns="http://www.w3.org/2000/svg">
<path d="M3.33799 15.999L3.79744 20.1758C3.84903 20.6449 4.24533 21 4.71722 21C5.3084 21 5.74797 20.4532 5.62095 19.8759L4.66261 15.5198C4.45312 14.5676 4.39639 13.5932 4.49 12.6324L4.41139 12.7182C3.59753 13.606 3.2063 14.8018 3.33799 15.999Z" stroke="#5C87B0" stroke-width="6"/>
<path d="M15.338 15.999L15.7974 20.1758C15.849 20.6449 16.2453 21 16.7172 21C17.3084 21 17.748 20.4532 17.6209 19.8759L16.6626 15.5198C16.4531 14.5676 16.3964 13.5932 16.49 12.6324L16.4114 12.7182C15.5975 13.606 15.2063 14.8018 15.338 15.999Z" stroke="#5C87B0" stroke-width="6"/>
</svg>
