<svg width="86" height="14" viewBox="0 0 86 14" fill="none" xmlns="http://www.w3.org/2000/svg">
<g clip-path="url(#clip0_18_1594)">
<path d="M7.49 1.08992L9.08 4.29992C9.11617 4.38139 9.17305 4.45197 9.24499 4.5046C9.31693 4.55724 9.40141 4.59011 9.49 4.59992L13 5.11992C13.1016 5.13298 13.1974 5.17469 13.2763 5.24017C13.3551 5.30566 13.4136 5.39221 13.4451 5.48973C13.4765 5.58725 13.4796 5.69171 13.4539 5.7909C13.4282 5.89009 13.3748 5.97993 13.3 6.04992L10.77 8.55992C10.7054 8.62025 10.657 8.69576 10.629 8.77959C10.6011 8.86343 10.5945 8.95292 10.61 9.03992L11.22 12.5699C11.2377 12.6714 11.2265 12.7757 11.1878 12.8711C11.1491 12.9665 11.0843 13.0491 11.001 13.1096C10.9176 13.17 10.819 13.2058 10.7163 13.2129C10.6136 13.2201 10.5109 13.1982 10.42 13.1499L7.26 11.4799C7.17909 11.4402 7.09014 11.4195 7 11.4195C6.90986 11.4195 6.82092 11.4402 6.74 11.4799L3.58 13.1499C3.48909 13.1982 3.38644 13.2201 3.28373 13.2129C3.18102 13.2058 3.08237 13.17 2.99902 13.1096C2.91566 13.0491 2.85094 12.9665 2.81222 12.8711C2.7735 12.7757 2.76234 12.6714 2.78 12.5699L3.39 8.99992C3.40546 8.91292 3.39892 8.82343 3.37098 8.73959C3.34303 8.65576 3.29457 8.58025 3.23 8.51992L0.670003 6.04992C0.594265 5.97802 0.541002 5.88569 0.516667 5.78413C0.492331 5.68258 0.497966 5.57614 0.53289 5.47772C0.567813 5.3793 0.630527 5.29311 0.713433 5.22961C0.79634 5.1661 0.895882 5.128 1 5.11992L4.51 4.59992C4.5986 4.59011 4.68308 4.55724 4.75502 4.5046C4.82695 4.45197 4.88384 4.38139 4.92 4.29992L6.51 1.08992C6.5533 0.996428 6.62244 0.917275 6.70927 0.861803C6.79609 0.806331 6.89697 0.776855 7 0.776855C7.10303 0.776855 7.20392 0.806331 7.29074 0.861803C7.37756 0.917275 7.4467 0.996428 7.49 1.08992Z" fill="#FFC700" stroke="#FFC700" stroke-linecap="round" stroke-linejoin="round"/>
</g>
<g clip-path="url(#clip1_18_1594)">
<path d="M25.49 1.08992L27.08 4.29992C27.1162 4.38139 27.1731 4.45197 27.245 4.5046C27.3169 4.55724 27.4014 4.59011 27.49 4.59992L31 5.11992C31.1016 5.13298 31.1974 5.17469 31.2763 5.24017C31.3551 5.30566 31.4136 5.39221 31.4451 5.48973C31.4765 5.58725 31.4796 5.69171 31.4539 5.7909C31.4282 5.89009 31.3748 5.97993 31.3 6.04992L28.77 8.55992C28.7054 8.62025 28.657 8.69576 28.629 8.77959C28.6011 8.86343 28.5945 8.95292 28.61 9.03992L29.22 12.5699C29.2377 12.6714 29.2265 12.7757 29.1878 12.8711C29.1491 12.9665 29.0843 13.0491 29.001 13.1096C28.9176 13.17 28.819 13.2058 28.7163 13.2129C28.6136 13.2201 28.5109 13.1982 28.42 13.1499L25.26 11.4799C25.1791 11.4402 25.0901 11.4195 25 11.4195C24.9099 11.4195 24.8209 11.4402 24.74 11.4799L21.58 13.1499C21.4891 13.1982 21.3864 13.2201 21.2837 13.2129C21.181 13.2058 21.0824 13.17 20.999 13.1096C20.9157 13.0491 20.8509 12.9665 20.8122 12.8711C20.7735 12.7757 20.7623 12.6714 20.78 12.5699L21.39 8.99992C21.4055 8.91292 21.3989 8.82343 21.371 8.73959C21.343 8.65576 21.2946 8.58025 21.23 8.51992L18.67 6.04992C18.5943 5.97802 18.541 5.88569 18.5167 5.78413C18.4923 5.68258 18.498 5.57614 18.5329 5.47772C18.5678 5.3793 18.6305 5.29311 18.7134 5.22961C18.7963 5.1661 18.8959 5.128 19 5.11992L22.51 4.59992C22.5986 4.59011 22.6831 4.55724 22.755 4.5046C22.827 4.45197 22.8838 4.38139 22.92 4.29992L24.51 1.08992C24.5533 0.996428 24.6224 0.917275 24.7093 0.861803C24.7961 0.806331 24.897 0.776855 25 0.776855C25.103 0.776855 25.2039 0.806331 25.2907 0.861803C25.3776 0.917275 25.4467 0.996428 25.49 1.08992Z" fill="#FFC700" stroke="#FFC700" stroke-linecap="round" stroke-linejoin="round"/>
</g>
<g clip-path="url(#clip2_18_1594)">
<path d="M43.49 1.08992L45.08 4.29992C45.1162 4.38139 45.1731 4.45197 45.245 4.5046C45.3169 4.55724 45.4014 4.59011 45.49 4.59992L49 5.11992C49.1016 5.13298 49.1974 5.17469 49.2763 5.24017C49.3551 5.30566 49.4136 5.39221 49.4451 5.48973C49.4765 5.58725 49.4796 5.69171 49.4539 5.7909C49.4282 5.89009 49.3748 5.97993 49.3 6.04992L46.77 8.55992C46.7054 8.62025 46.657 8.69576 46.629 8.77959C46.6011 8.86343 46.5945 8.95292 46.61 9.03992L47.22 12.5699C47.2377 12.6714 47.2265 12.7757 47.1878 12.8711C47.1491 12.9665 47.0843 13.0491 47.001 13.1096C46.9176 13.17 46.819 13.2058 46.7163 13.2129C46.6136 13.2201 46.5109 13.1982 46.42 13.1499L43.26 11.4799C43.1791 11.4402 43.0901 11.4195 43 11.4195C42.9099 11.4195 42.8209 11.4402 42.74 11.4799L39.58 13.1499C39.4891 13.1982 39.3864 13.2201 39.2837 13.2129C39.181 13.2058 39.0824 13.17 38.999 13.1096C38.9157 13.0491 38.8509 12.9665 38.8122 12.8711C38.7735 12.7757 38.7623 12.6714 38.78 12.5699L39.39 8.99992C39.4055 8.91292 39.3989 8.82343 39.371 8.73959C39.343 8.65576 39.2946 8.58025 39.23 8.51992L36.67 6.04992C36.5943 5.97802 36.541 5.88569 36.5167 5.78413C36.4923 5.68258 36.498 5.57614 36.5329 5.47772C36.5678 5.3793 36.6305 5.29311 36.7134 5.22961C36.7963 5.1661 36.8959 5.128 37 5.11992L40.51 4.59992C40.5986 4.59011 40.6831 4.55724 40.755 4.5046C40.827 4.45197 40.8838 4.38139 40.92 4.29992L42.51 1.08992C42.5533 0.996428 42.6224 0.917275 42.7093 0.861803C42.7961 0.806331 42.897 0.776855 43 0.776855C43.103 0.776855 43.2039 0.806331 43.2907 0.861803C43.3776 0.917275 43.4467 0.996428 43.49 1.08992Z" fill="#FFC700" stroke="#FFC700" stroke-linecap="round" stroke-linejoin="round"/>
</g>
<g clip-path="url(#clip3_18_1594)">
<path d="M61.49 1.08992L63.08 4.29992C63.1162 4.38139 63.1731 4.45197 63.245 4.5046C63.3169 4.55724 63.4014 4.59011 63.49 4.59992L67 5.11992C67.1016 5.13298 67.1974 5.17469 67.2763 5.24017C67.3551 5.30566 67.4136 5.39221 67.4451 5.48973C67.4765 5.58725 67.4796 5.69171 67.4539 5.7909C67.4282 5.89009 67.3748 5.97993 67.3 6.04992L64.77 8.55992C64.7054 8.62025 64.657 8.69576 64.629 8.77959C64.6011 8.86343 64.5945 8.95292 64.61 9.03992L65.22 12.5699C65.2377 12.6714 65.2265 12.7757 65.1878 12.8711C65.1491 12.9665 65.0843 13.0491 65.001 13.1096C64.9176 13.17 64.819 13.2058 64.7163 13.2129C64.6136 13.2201 64.5109 13.1982 64.42 13.1499L61.26 11.4799C61.1791 11.4402 61.0901 11.4195 61 11.4195C60.9099 11.4195 60.8209 11.4402 60.74 11.4799L57.58 13.1499C57.4891 13.1982 57.3864 13.2201 57.2837 13.2129C57.181 13.2058 57.0824 13.17 56.999 13.1096C56.9157 13.0491 56.8509 12.9665 56.8122 12.8711C56.7735 12.7757 56.7623 12.6714 56.78 12.5699L57.39 8.99992C57.4055 8.91292 57.3989 8.82343 57.371 8.73959C57.343 8.65576 57.2946 8.58025 57.23 8.51992L54.67 6.04992C54.5943 5.97802 54.541 5.88569 54.5167 5.78413C54.4923 5.68258 54.498 5.57614 54.5329 5.47772C54.5678 5.3793 54.6305 5.29311 54.7134 5.22961C54.7963 5.1661 54.8959 5.128 55 5.11992L58.51 4.59992C58.5986 4.59011 58.6831 4.55724 58.755 4.5046C58.827 4.45197 58.8838 4.38139 58.92 4.29992L60.51 1.08992C60.5533 0.996428 60.6224 0.917275 60.7093 0.861803C60.7961 0.806331 60.897 0.776855 61 0.776855C61.103 0.776855 61.2039 0.806331 61.2907 0.861803C61.3776 0.917275 61.4467 0.996428 61.49 1.08992Z" fill="#FFC700" stroke="#FFC700" stroke-linecap="round" stroke-linejoin="round"/>
</g>
<g clip-path="url(#clip4_18_1594)">
<path d="M79.49 1.08992L81.08 4.29992C81.1162 4.38139 81.1731 4.45197 81.245 4.5046C81.3169 4.55724 81.4014 4.59011 81.49 4.59992L85 5.11992C85.1016 5.13298 85.1974 5.17469 85.2763 5.24017C85.3551 5.30566 85.4136 5.39221 85.4451 5.48973C85.4765 5.58725 85.4796 5.69171 85.4539 5.7909C85.4282 5.89009 85.3748 5.97993 85.3 6.04992L82.77 8.55992C82.7054 8.62025 82.657 8.69576 82.629 8.77959C82.6011 8.86343 82.5945 8.95292 82.61 9.03992L83.22 12.5699C83.2377 12.6714 83.2265 12.7757 83.1878 12.8711C83.1491 12.9665 83.0843 13.0491 83.001 13.1096C82.9176 13.17 82.819 13.2058 82.7163 13.2129C82.6136 13.2201 82.5109 13.1982 82.42 13.1499L79.26 11.4799C79.1791 11.4402 79.0901 11.4195 79 11.4195C78.9099 11.4195 78.8209 11.4402 78.74 11.4799L75.58 13.1499C75.4891 13.1982 75.3864 13.2201 75.2837 13.2129C75.181 13.2058 75.0824 13.17 74.999 13.1096C74.9157 13.0491 74.8509 12.9665 74.8122 12.8711C74.7735 12.7757 74.7623 12.6714 74.78 12.5699L75.39 8.99992C75.4055 8.91292 75.3989 8.82343 75.371 8.73959C75.343 8.65576 75.2946 8.58025 75.23 8.51992L72.67 6.04992C72.5943 5.97802 72.541 5.88569 72.5167 5.78413C72.4923 5.68258 72.498 5.57614 72.5329 5.47772C72.5678 5.3793 72.6305 5.29311 72.7134 5.22961C72.7963 5.1661 72.8959 5.128 73 5.11992L76.51 4.59992C76.5986 4.59011 76.6831 4.55724 76.755 4.5046C76.827 4.45197 76.8838 4.38139 76.92 4.29992L78.51 1.08992C78.5533 0.996428 78.6224 0.917275 78.7093 0.861803C78.7961 0.806331 78.897 0.776855 79 0.776855C79.103 0.776855 79.2039 0.806331 79.2907 0.861803C79.3776 0.917275 79.4467 0.996428 79.49 1.08992Z" fill="#FFC700" stroke="#FFC700" stroke-linecap="round" stroke-linejoin="round"/>
</g>
<defs>
<clipPath id="clip0_18_1594">
<rect width="14" height="14" fill="white"/>
</clipPath>
<clipPath id="clip1_18_1594">
<rect width="14" height="14" fill="white" transform="translate(18)"/>
</clipPath>
<clipPath id="clip2_18_1594">
<rect width="14" height="14" fill="white" transform="translate(36)"/>
</clipPath>
<clipPath id="clip3_18_1594">
<rect width="14" height="14" fill="white" transform="translate(54)"/>
</clipPath>
<clipPath id="clip4_18_1594">
<rect width="14" height="14" fill="white" transform="translate(72)"/>
</clipPath>
</defs>
</svg>
