<svg width="14" height="14" viewBox="0 0 14 14" fill="none" xmlns="http://www.w3.org/2000/svg">
<path d="M7 0C10.8661 0 14 3.13407 14 7.00038C14 10.8667 10.8661 14.0008 7 14.0008C3.1339 14.0008 0 10.8667 0 7.00038C0 3.13407 3.1339 0 7 0ZM7 1.40008C5.51479 1.40008 4.09041 1.99011 3.0402 3.04037C1.99 4.09063 1.4 5.51508 1.4 7.00038C1.4 8.48567 1.99 9.91013 3.0402 10.9604C4.09041 12.0106 5.51479 12.6007 7 12.6007C8.48521 12.6007 9.90959 12.0106 10.9598 10.9604C12.01 9.91013 12.6 8.48567 12.6 7.00038C12.6 5.51508 12.01 4.09063 10.9598 3.04037C9.90959 1.99011 8.48521 1.40008 7 1.40008ZM7 2.80015C7.17145 2.80017 7.33694 2.86312 7.46506 2.97706C7.59318 3.091 7.67504 3.248 7.6951 3.41828L7.7 3.50019V6.71056L9.5949 8.60556C9.72044 8.73154 9.79333 8.90058 9.79876 9.07836C9.80419 9.25613 9.74175 9.42931 9.62413 9.56271C9.5065 9.69611 9.34251 9.77974 9.16547 9.79661C8.98842 9.81347 8.81159 9.76231 8.6709 9.65352L8.6051 9.59542L6.5051 7.4953C6.39631 7.38641 6.32643 7.24469 6.3063 7.09208L6.3 7.00038V3.50019C6.3 3.31453 6.37375 3.13647 6.50503 3.00519C6.6363 2.8739 6.81435 2.80015 7 2.80015Z" fill="#7B85D9"/>
</svg>
