<svg width="80" height="80" viewBox="0 0 80 80" fill="none" xmlns="http://www.w3.org/2000/svg">
<rect width="80" height="80" rx="24" fill="#008080" fill-opacity="0.2"/>
<g clip-path="url(#clip0_18_806)">
<path opacity="0.2" fill-rule="evenodd" clip-rule="evenodd" d="M40.8077 61.0001C51.9603 61.0001 61 51.9604 61 40.8078C61 29.6552 51.9603 20.6155 40.8077 20.6155C29.655 20.6155 20.6154 29.6552 20.6154 40.8078C20.6154 51.9604 29.655 61.0001 40.8077 61.0001ZM40.8077 57.7693C50.1753 57.7693 57.7692 50.1754 57.7692 40.8078C57.7692 31.4402 50.1753 23.8462 40.8077 23.8462C31.4401 23.8462 23.8461 31.4402 23.8461 40.8078C23.8461 50.1754 31.4401 57.7693 40.8077 57.7693Z" fill="#008080"/>
<g opacity="0.2">
<path d="M53.7307 41.6154C53.7307 43.1004 53.4383 44.5708 52.87 45.9427C52.3017 47.3146 51.4688 48.5612 50.4188 49.6112C49.3688 50.6612 48.1222 51.4941 46.7503 52.0624C45.3784 52.6306 43.908 52.9231 42.423 52.9231C40.9381 52.9231 39.4677 52.6306 38.0958 52.0624C36.7239 51.4941 35.4773 50.6612 34.4273 49.6112C33.3773 48.5612 32.5444 47.3146 31.9761 45.9427C31.4078 44.5708 31.1154 43.1004 31.1154 41.6154C31.1154 38.6164 32.3067 35.7403 34.4273 33.6197C36.5479 31.4991 39.4241 30.3077 42.423 30.3077C45.422 30.3077 48.2982 31.4991 50.4188 33.6197C52.5394 35.7403 53.7307 38.6164 53.7307 41.6154Z" fill="#008080"/>
<path fill-rule="evenodd" clip-rule="evenodd" d="M42.423 49.6924C44.5652 49.6924 46.6196 48.8414 48.1343 47.3267C49.649 45.812 50.5 43.7576 50.5 41.6154C50.5 39.4733 49.649 37.4189 48.1343 35.9042C46.6196 34.3895 44.5652 33.5385 42.423 33.5385C40.2809 33.5385 38.2265 34.3895 36.7118 35.9042C35.1971 37.4189 34.3461 39.4733 34.3461 41.6154C34.3461 43.7576 35.1971 45.812 36.7118 47.3267C38.2265 48.8414 40.2809 49.6924 42.423 49.6924ZM42.423 52.9231C45.422 52.9231 48.2982 51.7318 50.4188 49.6112C52.5394 47.4906 53.7307 44.6144 53.7307 41.6154C53.7307 38.6164 52.5394 35.7403 50.4188 33.6197C48.2982 31.4991 45.422 30.3077 42.423 30.3077C39.4241 30.3077 36.5479 31.4991 34.4273 33.6197C32.3067 35.7403 31.1154 38.6164 31.1154 41.6154C31.1154 44.6144 32.3067 47.4906 34.4273 49.6112C36.5479 51.7318 39.4241 52.9231 42.423 52.9231Z" fill="#008080"/>
</g>
<path fill-rule="evenodd" clip-rule="evenodd" d="M32.8988 32.65C31.7825 33.7503 30.9292 35.0887 30.4028 36.565C29.8763 38.0414 29.6903 39.6176 29.8586 41.176C29.8698 41.2816 29.86 41.3882 29.8299 41.49C29.7998 41.5918 29.7499 41.6866 29.6832 41.7691C29.6164 41.8516 29.5341 41.9202 29.4409 41.9708C29.3476 42.0215 29.2453 42.0533 29.1398 42.0645C29.0342 42.0756 28.9275 42.0659 28.8258 42.0358C28.724 42.0057 28.6292 41.9558 28.5467 41.8891C28.4642 41.8223 28.3956 41.74 28.3449 41.6467C28.2943 41.5535 28.2624 41.4512 28.2513 41.3456C28.0574 39.5456 28.2727 37.725 28.8811 36.0199C29.4895 34.3147 30.4753 32.769 31.7648 31.4982C36.5092 26.8185 44.1628 26.8944 48.8588 31.6566C53.5547 36.4171 53.524 44.0708 48.778 48.7506C46.5812 50.9208 43.632 52.1602 40.5444 52.2107C39.377 52.2315 38.2128 52.0841 37.0875 51.7729C36.881 51.716 36.7055 51.5793 36.5998 51.393C36.4941 51.2067 36.4667 50.986 36.5237 50.7795C36.5807 50.573 36.7174 50.3976 36.9037 50.2918C37.09 50.1861 37.3107 50.1587 37.5172 50.2157C38.4931 50.4856 39.5029 50.6135 40.5153 50.5953C43.1886 50.5526 45.7423 49.4798 47.644 47.6004C51.7487 43.5522 51.7826 36.9227 47.7086 32.7906C43.6346 28.6584 37.0035 28.6019 32.8988 32.65Z" fill="#008080"/>
<path fill-rule="evenodd" clip-rule="evenodd" d="M29.6518 42.2018C29.5812 42.2809 29.4957 42.3453 29.4001 42.3914C29.3046 42.4375 29.2009 42.4643 29.095 42.4703C28.9891 42.4763 28.883 42.4614 28.7829 42.4264C28.6828 42.3914 28.5905 42.337 28.5114 42.2664L25.7329 39.7948C25.6475 39.7263 25.5769 39.6411 25.5255 39.5444C25.474 39.4477 25.4428 39.3415 25.4337 39.2324C25.4245 39.1232 25.4377 39.0134 25.4723 38.9095C25.507 38.8056 25.5624 38.7098 25.6352 38.628C25.708 38.5462 25.7967 38.48 25.8959 38.4336C25.9951 38.3871 26.1027 38.3613 26.2122 38.3577C26.3216 38.3542 26.4307 38.3729 26.5327 38.4128C26.6347 38.4527 26.7275 38.5129 26.8055 38.5898L29.584 41.0613C29.6634 41.1317 29.7281 41.2171 29.7744 41.3125C29.8208 41.408 29.8479 41.5116 29.8542 41.6175C29.8605 41.7234 29.8459 41.8295 29.8111 41.9298C29.7764 42.03 29.7223 42.1224 29.6518 42.2018Z" fill="#008080"/>
<path fill-rule="evenodd" clip-rule="evenodd" d="M28.4015 42.1C28.4652 42.1849 28.5449 42.2564 28.6362 42.3104C28.7274 42.3645 28.8285 42.4 28.9335 42.415C29.0385 42.43 29.1454 42.4242 29.2481 42.3978C29.3509 42.3715 29.4474 42.3252 29.5323 42.2616L32.7631 39.8385C32.8479 39.7749 32.9194 39.6951 32.9735 39.6039C33.0275 39.5126 33.063 39.4116 33.078 39.3066C33.093 39.2016 33.0872 39.0946 33.0609 38.9919C33.0346 38.8891 32.9882 38.7926 32.9246 38.7077C32.861 38.6229 32.7812 38.5514 32.69 38.4973C32.5987 38.4433 32.4977 38.4078 32.3927 38.3928C32.2877 38.3778 32.1807 38.3836 32.078 38.4099C31.9753 38.4362 31.8787 38.4826 31.7938 38.5462L28.5631 40.9693C28.3917 41.0978 28.2784 41.2891 28.2481 41.5012C28.2178 41.7133 28.273 41.9287 28.4015 42.1ZM40 34.3462C40.2142 34.3462 40.4196 34.4313 40.5711 34.5828C40.7226 34.7342 40.8077 34.9397 40.8077 35.1539V40.8077C40.8077 41.0219 40.7226 41.2274 40.5711 41.3789C40.4196 41.5303 40.2142 41.6154 40 41.6154C39.7858 41.6154 39.5803 41.5303 39.4289 41.3789C39.2774 41.2274 39.1923 41.0219 39.1923 40.8077V35.1539C39.1923 34.9397 39.2774 34.7342 39.4289 34.5828C39.5803 34.4313 39.7858 34.3462 40 34.3462Z" fill="#008080"/>
<path fill-rule="evenodd" clip-rule="evenodd" d="M45.6538 40.8077C45.6538 41.0219 45.5687 41.2273 45.4173 41.3788C45.2658 41.5303 45.0604 41.6154 44.8461 41.6154H40C39.7858 41.6154 39.5803 41.5303 39.4289 41.3788C39.2774 41.2273 39.1923 41.0219 39.1923 40.8077C39.1923 40.5935 39.2774 40.388 39.4289 40.2366C39.5803 40.0851 39.7858 40 40 40H44.8461C45.0604 40 45.2658 40.0851 45.4173 40.2366C45.5687 40.388 45.6538 40.5935 45.6538 40.8077Z" fill="#008080"/>
<path fill-rule="evenodd" clip-rule="evenodd" d="M40 58.577C50.2593 58.577 58.5769 50.2594 58.5769 40C58.5769 29.7407 50.2593 21.4231 40 21.4231C29.7407 21.4231 21.4231 29.7407 21.4231 40C21.4231 50.2594 29.7407 58.577 40 58.577ZM40 60.1924C51.1526 60.1924 60.1923 51.1527 60.1923 40C60.1923 28.8474 51.1526 19.8077 40 19.8077C28.8474 19.8077 19.8077 28.8474 19.8077 40C19.8077 51.1527 28.8474 60.1924 40 60.1924Z" fill="#008080"/>
</g>
<defs>
<clipPath id="clip0_18_806">
<rect width="42" height="42" fill="white" transform="translate(19 19)"/>
</clipPath>
</defs>
</svg>
