<svg width="14" height="15" viewBox="0 0 14 15" fill="none" xmlns="http://www.w3.org/2000/svg">
<path d="M7 0.199951C10.8661 0.199951 14 3.33402 14 7.20033C14 11.0666 10.8661 14.2007 7 14.2007C3.1339 14.2007 0 11.0666 0 7.20033C0 3.33402 3.1339 0.199951 7 0.199951ZM7 1.60003C5.51479 1.60003 4.09041 2.19006 3.0402 3.24032C1.99 4.29058 1.4 5.71504 1.4 7.20033C1.4 8.68562 1.99 10.1101 3.0402 11.1603C4.09041 12.2106 5.51479 12.8006 7 12.8006C8.48521 12.8006 9.90959 12.2106 10.9598 11.1603C12.01 10.1101 12.6 8.68562 12.6 7.20033C12.6 5.71504 12.01 4.29058 10.9598 3.24032C9.90959 2.19006 8.48521 1.60003 7 1.60003ZM7 3.0001C7.17145 3.00012 7.33694 3.06307 7.46506 3.17701C7.59318 3.29095 7.67504 3.44795 7.6951 3.61824L7.7 3.70014V6.91051L9.5949 8.80552C9.72044 8.93149 9.79333 9.10053 9.79876 9.27831C9.80419 9.45608 9.74175 9.62926 9.62413 9.76266C9.5065 9.89606 9.34251 9.97969 9.16547 9.99656C8.98842 10.0134 8.81159 9.96227 8.6709 9.85347L8.6051 9.79537L6.5051 7.69525C6.39631 7.58636 6.32643 7.44464 6.3063 7.29203L6.3 7.20033V3.70014C6.3 3.51448 6.37375 3.33642 6.50503 3.20514C6.6363 3.07386 6.81435 3.0001 7 3.0001Z" fill="#7B85D9"/>
</svg>
