<svg width="42" height="42" viewBox="0 0 42 42" fill="none" xmlns="http://www.w3.org/2000/svg">
<path d="M35.2055 5H6.33048C5.19005 5 4.26563 5.92437 4.26563 7.0648C4.26562 8.36183 4.26563 9.84389 4.26563 10.1875V33.8125C4.26563 34.4217 4.50762 35.0059 4.93837 35.4366C5.36911 35.8674 5.95333 36.1094 6.5625 36.1094H8.7593C8.94557 36.1093 9.12801 36.0564 9.28542 35.9568C9.44282 35.8572 9.56873 35.715 9.64852 35.5466C10.3133 34.1428 11.3629 32.9565 12.6754 32.1258C13.9879 31.2951 15.5092 30.8541 17.0625 30.8541C18.6158 30.8541 20.1371 31.2951 21.4496 32.1258C22.7621 32.9565 23.8118 34.1428 24.4765 35.5466C24.5563 35.715 24.6822 35.8572 24.8396 35.9568C24.997 36.0564 25.1794 36.1093 25.3657 36.1094H35.4375C36.0467 36.1094 36.6309 35.8674 37.0616 35.4366C37.4924 35.0059 37.7344 34.4217 37.7344 33.8125V10.1875C37.7344 9.88082 37.7344 8.69487 37.7344 7.5289C37.7344 6.13223 36.6021 5 35.2055 5ZM12.7969 24.625C12.7969 23.7813 13.0471 22.9566 13.5158 22.2551C13.9845 21.5537 14.6507 21.0069 15.4301 20.6841C16.2096 20.3612 17.0672 20.2767 17.8947 20.4413C18.7221 20.6059 19.4822 21.0122 20.0788 21.6087C20.6753 22.2053 21.0816 22.9654 21.2462 23.7928C21.4108 24.6203 21.3263 25.4779 21.0034 26.2574C20.6806 27.0368 20.1338 27.703 19.4324 28.1717C18.7309 28.6404 17.9062 28.8906 17.0625 28.8906C15.9312 28.8906 14.8462 28.4412 14.0463 27.6412C13.2463 26.8413 12.7969 25.7563 12.7969 24.625ZM35.7656 33.8125C35.7656 33.8995 35.7311 33.983 35.6695 34.0445C35.608 34.1061 35.5245 34.1406 35.4375 34.1406H25.9662C24.8184 32.0804 22.9938 30.4802 20.8015 29.6109C21.8487 28.826 22.6223 27.7315 23.0128 26.4825C23.4033 25.2334 23.3909 23.8932 22.9773 22.6516C22.5636 21.41 21.7698 20.3301 20.7082 19.5648C19.6466 18.7996 18.3712 18.3878 17.0625 18.3878C15.7538 18.3878 14.4784 18.7996 13.4168 19.5648C12.3552 20.3301 11.5614 21.41 11.1477 22.6516C10.7341 23.8932 10.7217 25.2334 11.1122 26.4825C11.5027 27.7315 12.2763 28.826 13.3235 29.6109C11.1312 30.4802 9.30664 32.0804 8.15883 34.1406H6.5625C6.47548 34.1406 6.39202 34.1061 6.33048 34.0445C6.26895 33.983 6.23438 33.8995 6.23438 33.8125V10.1875C6.23438 10.1005 6.17284 7.06154 6.23438 7C6.29591 6.93847 6.24346 7 6.33048 7H35.2055C35.2925 7 35.7656 7 35.7656 7C35.8272 7.06154 35.7656 10.1005 35.7656 10.1875V33.8125ZM32.4844 14.125V29.875C32.4844 30.1361 32.3807 30.3864 32.1961 30.5711C32.0115 30.7557 31.7611 30.8594 31.5 30.8594H28.875C28.6139 30.8594 28.3635 30.7557 28.1789 30.5711C27.9943 30.3864 27.8906 30.1361 27.8906 29.875C27.8906 29.6139 27.9943 29.3635 28.1789 29.1789C28.3635 28.9943 28.6139 28.8906 28.875 28.8906H30.5156V15.1094H11.4844V16.75C11.4844 17.0111 11.3807 17.2615 11.1961 17.4461C11.0115 17.6307 10.7611 17.7344 10.5 17.7344C10.2389 17.7344 9.98855 17.6307 9.80394 17.4461C9.61934 17.2615 9.51563 17.0111 9.51563 16.75V14.125C9.51563 13.8639 9.61934 13.6136 9.80394 13.4289C9.98855 13.2443 10.2389 13.1406 10.5 13.1406H31.5C31.7611 13.1406 32.0115 13.2443 32.1961 13.4289C32.3807 13.6136 32.4844 13.8639 32.4844 14.125Z" fill="#9F399A"/>
</svg>
