<svg width="386" height="631" viewBox="0 0 386 631" fill="none" xmlns="http://www.w3.org/2000/svg">
<g filter="url(#filter0_d_18_464)">
<path d="M6 45.84C6 31.0377 6 23.6365 9.15284 18.109C11.2824 14.3755 14.3755 11.2824 18.109 9.15284C23.6365 6 31.0377 6 45.84 6H336.16C350.962 6 358.363 6 363.891 9.15284C367.624 11.2824 370.718 14.3755 372.847 18.109C376 23.6365 376 31.0377 376 45.84V581.16C376 595.962 376 603.364 372.847 608.891C370.718 612.625 367.624 615.718 363.891 617.847C358.363 621 350.962 621 336.16 621H45.84C31.0377 621 23.6365 621 18.109 617.847C14.3755 615.718 11.2824 612.625 9.15284 608.891C6 603.364 6 595.962 6 581.16V45.84Z" fill="#EEF0FE"/>
<path d="M6 45.84C6 31.0377 6 23.6365 9.15284 18.109C11.2824 14.3755 14.3755 11.2824 18.109 9.15284C23.6365 6 31.0377 6 45.84 6H336.16C350.962 6 358.363 6 363.891 9.15284C367.624 11.2824 370.718 14.3755 372.847 18.109C376 23.6365 376 31.0377 376 45.84V581.16C376 595.962 376 603.364 372.847 608.891C370.718 612.625 367.624 615.718 363.891 617.847C358.363 621 350.962 621 336.16 621H45.84C31.0377 621 23.6365 621 18.109 617.847C14.3755 615.718 11.2824 612.625 9.15284 608.891C6 603.364 6 595.962 6 581.16V45.84Z" stroke="#8E7FB9" stroke-width="2"/>
</g>
<defs>
<filter id="filter0_d_18_464" x="0.0999999" y="0.0999999" width="385.8" height="630.8" filterUnits="userSpaceOnUse" color-interpolation-filters="sRGB">
<feFlood flood-opacity="0" result="BackgroundImageFix"/>
<feColorMatrix in="SourceAlpha" type="matrix" values="0 0 0 0 0 0 0 0 0 0 0 0 0 0 0 0 0 0 127 0" result="hardAlpha"/>
<feOffset dx="2" dy="2"/>
<feGaussianBlur stdDeviation="3.45"/>
<feComposite in2="hardAlpha" operator="out"/>
<feColorMatrix type="matrix" values="0 0 0 0 0.00784314 0 0 0 0 0.466667 0 0 0 0 0.470588 0 0 0 1 0"/>
<feBlend mode="normal" in2="BackgroundImageFix" result="effect1_dropShadow_18_464"/>
<feBlend mode="normal" in="SourceGraphic" in2="effect1_dropShadow_18_464" result="shape"/>
</filter>
</defs>
</svg>
