<svg width="304" height="504" viewBox="0 0 304 504" fill="none" xmlns="http://www.w3.org/2000/svg">
<path d="M1 40.84C1 26.0377 1 18.6365 4.15284 13.109C6.28239 9.37549 9.37549 6.28239 13.109 4.15284C18.6365 1 26.0377 1 40.84 1H263.16C277.962 1 285.363 1 290.891 4.15284C294.625 6.28239 297.718 9.37549 299.847 13.109C303 18.6365 303 26.0377 303 40.84V463.16C303 477.962 303 485.363 299.847 490.891C297.718 494.624 294.625 497.718 290.891 499.847C285.363 503 277.962 503 263.16 503H40.84C26.0377 503 18.6365 503 13.109 499.847C9.37549 497.718 6.28239 494.624 4.15284 490.891C1 485.363 1 477.962 1 463.16V40.84Z" fill="#EEF0FE" stroke="#8E7FB9" stroke-width="2"/>
</svg>
