<svg width="22" height="23" viewBox="0 0 22 23" fill="none" xmlns="http://www.w3.org/2000/svg">
<path d="M8.10325 8.01297C8.1062 8.00461 8.10938 7.99543 8.11281 7.98534C8.12668 7.9446 8.142 7.89714 8.16179 7.83581L9.60757 3.35281L9.61747 3.32211C9.74812 2.91697 9.85991 2.57026 9.96986 2.31681C10.027 2.185 10.0967 2.04694 10.1875 1.92636C10.2803 1.80324 10.4182 1.66769 10.6192 1.59376C10.865 1.50334 11.135 1.50334 11.3808 1.59376C11.5818 1.66769 11.7197 1.80324 11.8125 1.92636C11.9033 2.04694 11.973 2.185 12.0301 2.31681C12.1401 2.57025 12.2519 2.91693 12.3825 3.32204L12.3924 3.35281L13.8382 7.83581C13.858 7.89715 13.8733 7.9446 13.8872 7.98534C13.8906 7.99543 13.8938 8.00461 13.8967 8.01297C13.9056 8.01319 13.9153 8.01337 13.926 8.01352C13.969 8.01412 14.0189 8.01403 14.0833 8.01389L18.7937 8.0036L18.826 8.00352C19.2516 8.00258 19.6159 8.00177 19.8909 8.02801C20.034 8.04166 20.1868 8.06524 20.3295 8.11437C20.4753 8.16453 20.6468 8.25384 20.7792 8.42214M8.10325 8.01297L20.7792 8.42214M8.10325 8.01297C8.09439 8.01319 8.08468 8.01337 8.07402 8.01352C8.03099 8.01412 7.98112 8.01403 7.91667 8.01389L3.20632 8.0036L3.17404 8.00352C2.74837 8.00258 2.38409 8.00177 2.10907 8.02801C1.96604 8.04166 1.81321 8.06524 1.67046 8.11437C1.52472 8.16453 1.35317 8.25384 1.22075 8.42214C1.0588 8.62798 0.975376 8.88473 0.985408 9.14645C0.99361 9.36044 1.0799 9.53353 1.16833 9.65978C1.25494 9.78343 1.36472 9.89233 1.47241 9.98745C1.67948 10.1703 1.97466 10.3838 2.3196 10.6332L2.34575 10.6521L6.16256 13.4125C6.21478 13.4503 6.25518 13.4795 6.28964 13.5053C6.29818 13.5117 6.30592 13.5175 6.31296 13.5229C6.31043 13.5314 6.30761 13.5407 6.30446 13.5509C6.29173 13.592 6.27624 13.6394 6.25619 13.7006L4.79081 18.1773L4.78077 18.2079C4.64833 18.6125 4.53499 18.9587 4.47497 19.2284C4.44375 19.3686 4.41894 19.5212 4.42156 19.6722C4.42422 19.8263 4.45616 20.0171 4.5753 20.195C4.72102 20.4126 4.93942 20.5713 5.19143 20.6426C5.39748 20.701 5.58877 20.6724 5.73617 20.6273C5.88053 20.5831 6.01802 20.5124 6.14176 20.4394C6.37968 20.2989 6.67391 20.0842 7.01773 19.8332L7.04381 19.8142L10.8485 17.0372C10.9006 16.9992 10.9409 16.9698 10.976 16.945C10.9847 16.9388 10.9927 16.9333 11 16.9282C11.0073 16.9333 11.0153 16.9388 11.024 16.945C11.0591 16.9698 11.0994 16.9992 11.1515 17.0372L14.9562 19.8142L14.9823 19.8332C15.3261 20.0842 15.6203 20.2989 15.8582 20.4394C15.982 20.5124 16.1195 20.5831 16.2638 20.6273C16.4112 20.6724 16.6025 20.701 16.8086 20.6426C17.0606 20.5713 17.279 20.4126 17.4247 20.195C17.5438 20.0171 17.5758 19.8263 17.5784 19.6722C17.5811 19.5212 17.5562 19.3686 17.525 19.2284C17.465 18.9587 17.3517 18.6125 17.2192 18.2079L17.2092 18.1773L15.7438 13.7006C15.7238 13.6394 15.7083 13.592 15.6955 13.5509C15.6924 13.5407 15.6896 13.5314 15.687 13.5229C15.6941 13.5175 15.7018 13.5117 15.7104 13.5053C15.7448 13.4795 15.7852 13.4503 15.8374 13.4125L19.6542 10.6521L19.6804 10.6332C20.0253 10.3838 20.3205 10.1703 20.5276 9.98745C20.6353 9.89233 20.7451 9.78343 20.8317 9.65978C20.9201 9.53353 21.0064 9.36044 21.0146 9.14645L20.412 9.12335L21.0146 9.14645C21.0246 8.88473 20.9412 8.62798 20.7792 8.42214M8.10325 8.01297L20.7792 8.42214" fill="#FFC700" stroke="white" stroke-width="1.20609"/>
</svg>
