<svg width="18" height="19" viewBox="0 0 18 19" fill="none" xmlns="http://www.w3.org/2000/svg">
<mask id="path-1-outside-1_18_628" maskUnits="userSpaceOnUse" x="0" y="-0.570679" width="18" height="18" fill="black">
<rect fill="white" y="-0.570679" width="18" height="18"/>
<path d="M8.15989 2.96738C8.43812 2.10459 8.57724 1.6732 8.80577 1.58914C8.91719 1.54815 9.03956 1.54815 9.15099 1.58914C9.37951 1.6732 9.51863 2.10459 9.79687 2.96738L10.7911 6.05043C10.8685 6.29042 10.9072 6.41042 10.9873 6.49365C11.0282 6.53617 11.0763 6.57112 11.1293 6.59688C11.2332 6.6473 11.3593 6.64702 11.6115 6.64647L14.8508 6.63939C15.7573 6.63741 16.2105 6.63642 16.3611 6.82778C16.4345 6.92108 16.4723 7.03746 16.4678 7.15609C16.4584 7.3994 16.0912 7.66501 15.3567 8.19623L12.7318 10.0947C12.5275 10.2425 12.4253 10.3164 12.3709 10.4182C12.3431 10.4702 12.3247 10.5268 12.3166 10.5852C12.3008 10.6996 12.34 10.8194 12.4184 11.0591L13.4262 14.1379C13.7082 14.9994 13.8492 15.4302 13.7137 15.6325C13.6477 15.7312 13.5487 15.8031 13.4344 15.8354C13.2001 15.9017 12.834 15.6345 12.1018 15.1L9.48541 13.1902C9.28173 13.0416 9.17988 12.9672 9.06619 12.947C9.00811 12.9366 8.94865 12.9366 8.89056 12.947C8.77687 12.9672 8.67503 13.0416 8.47134 13.1902L5.85493 15.1C5.12272 15.6345 4.75662 15.9017 4.52234 15.8354C4.4081 15.8031 4.3091 15.7312 4.24304 15.6325C4.10757 15.4302 4.24857 14.9994 4.53057 14.1379L5.53832 11.0591C5.61676 10.8194 5.65598 10.6996 5.64014 10.5852C5.63204 10.5268 5.61367 10.4702 5.58587 10.4182C5.53145 10.3164 5.4293 10.2425 5.22498 10.0947L2.60006 8.19623C1.86557 7.66501 1.49832 7.3994 1.489 7.15609C1.48445 7.03746 1.52227 6.92108 1.59568 6.82778C1.74624 6.63642 2.19947 6.63741 3.10594 6.63939L6.34527 6.64647C6.59743 6.64702 6.72351 6.6473 6.82741 6.59688C6.88049 6.57112 6.9286 6.53617 6.9695 6.49365C7.04955 6.41042 7.08825 6.29042 7.16564 6.05043L8.15989 2.96738Z"/>
</mask>
<path d="M8.15989 2.96738C8.43812 2.10459 8.57724 1.6732 8.80577 1.58914C8.91719 1.54815 9.03956 1.54815 9.15099 1.58914C9.37951 1.6732 9.51863 2.10459 9.79687 2.96738L10.7911 6.05043C10.8685 6.29042 10.9072 6.41042 10.9873 6.49365C11.0282 6.53617 11.0763 6.57112 11.1293 6.59688C11.2332 6.6473 11.3593 6.64702 11.6115 6.64647L14.8508 6.63939C15.7573 6.63741 16.2105 6.63642 16.3611 6.82778C16.4345 6.92108 16.4723 7.03746 16.4678 7.15609C16.4584 7.3994 16.0912 7.66501 15.3567 8.19623L12.7318 10.0947C12.5275 10.2425 12.4253 10.3164 12.3709 10.4182C12.3431 10.4702 12.3247 10.5268 12.3166 10.5852C12.3008 10.6996 12.34 10.8194 12.4184 11.0591L13.4262 14.1379C13.7082 14.9994 13.8492 15.4302 13.7137 15.6325C13.6477 15.7312 13.5487 15.8031 13.4344 15.8354C13.2001 15.9017 12.834 15.6345 12.1018 15.1L9.48541 13.1902C9.28173 13.0416 9.17988 12.9672 9.06619 12.947C9.00811 12.9366 8.94865 12.9366 8.89056 12.947C8.77687 12.9672 8.67503 13.0416 8.47134 13.1902L5.85493 15.1C5.12272 15.6345 4.75662 15.9017 4.52234 15.8354C4.4081 15.8031 4.3091 15.7312 4.24304 15.6325C4.10757 15.4302 4.24857 14.9994 4.53057 14.1379L5.53832 11.0591C5.61676 10.8194 5.65598 10.6996 5.64014 10.5852C5.63204 10.5268 5.61367 10.4702 5.58587 10.4182C5.53145 10.3164 5.4293 10.2425 5.22498 10.0947L2.60006 8.19623C1.86557 7.66501 1.49832 7.3994 1.489 7.15609C1.48445 7.03746 1.52227 6.92108 1.59568 6.82778C1.74624 6.63642 2.19947 6.63741 3.10594 6.63939L6.34527 6.64647C6.59743 6.64702 6.72351 6.6473 6.82741 6.59688C6.88049 6.57112 6.9286 6.53617 6.9695 6.49365C7.04955 6.41042 7.08825 6.29042 7.16564 6.05043L8.15989 2.96738Z" fill="#FFC700"/>
<path d="M6.34527 6.64647L6.34791 5.44038L6.34527 6.64647ZM6.82741 6.59688L7.35396 7.68197L6.82741 6.59688ZM7.16564 6.05043L8.31352 6.4206L7.16564 6.05043ZM6.9695 6.49365L6.10021 5.65758L6.9695 6.49365ZM1.489 7.15609L0.283789 7.20227L1.489 7.15609ZM3.10594 6.63939L3.1033 7.84548L3.10594 6.63939ZM1.59568 6.82778L2.54356 7.57356L1.59568 6.82778ZM5.53832 11.0591L4.39207 10.6839L5.53832 11.0591ZM5.64014 10.5852L6.83483 10.4198L5.64014 10.5852ZM5.22498 10.0947L5.9318 9.11742L5.22498 10.0947ZM5.58587 10.4182L4.52208 10.9866L5.58587 10.4182ZM5.85493 15.1L5.14385 14.1259L5.85493 15.1ZM4.52234 15.8354L4.85081 14.6749L4.52234 15.8354ZM4.24304 15.6325L3.24087 16.3036L4.24304 15.6325ZM9.06619 12.947L8.85436 14.1343L9.06619 12.947ZM8.47134 13.1902L9.18243 14.1644L8.47134 13.1902ZM8.89056 12.947L8.67873 11.7596L8.89056 12.947ZM13.7137 15.6325L14.7159 16.3036L13.7137 15.6325ZM12.1018 15.1L11.3907 16.0742L12.1018 15.1ZM13.4344 15.8354L13.1059 14.6749L13.4344 15.8354ZM12.7318 10.0947L12.025 9.11742L12.7318 10.0947ZM12.3709 10.4182L13.4347 10.9866L12.3709 10.4182ZM12.4184 11.0591L13.5647 10.6839L12.4184 11.0591ZM12.3166 10.5852L11.1219 10.4198L12.3166 10.5852ZM16.3611 6.82778L17.309 6.08199L16.3611 6.82778ZM16.4678 7.15609L17.673 7.20227L16.4678 7.15609ZM10.7911 6.05043L9.64323 6.4206L10.7911 6.05043ZM10.9873 6.49365L10.118 7.32972L10.9873 6.49365ZM11.6115 6.64647L11.6088 5.44038L11.6115 6.64647ZM11.1293 6.59688L11.6559 5.51179L11.1293 6.59688ZM9.79687 2.96738L8.64899 3.33756L9.79687 2.96738ZM9.15099 1.58914L8.73462 2.72108L9.15099 1.58914ZM8.64899 3.33756L9.64323 6.4206L11.939 5.68025L10.9448 2.5972L8.64899 3.33756ZM11.6141 7.85256L14.8535 7.84548L14.8482 5.4333L11.6088 5.44038L11.6141 7.85256ZM14.6499 7.21895L12.025 9.11742L13.4386 11.072L16.0635 9.17351L14.6499 7.21895ZM11.2722 11.4343L12.2799 14.5131L14.5724 13.7627L13.5647 10.6839L11.2722 11.4343ZM12.8129 14.1259L10.1965 12.2161L8.77433 14.1644L11.3907 16.0742L12.8129 14.1259ZM7.76026 12.2161L5.14385 14.1259L6.56601 16.0742L9.18243 14.1644L7.76026 12.2161ZM5.67682 14.5131L6.68457 11.4343L4.39207 10.6839L3.38431 13.7627L5.67682 14.5131ZM5.9318 9.11742L3.30688 7.21895L1.89325 9.17351L4.51817 11.072L5.9318 9.11742ZM3.1033 7.84548L6.34263 7.85256L6.34791 5.44038L3.10857 5.4333L3.1033 7.84548ZM8.31352 6.4206L9.30777 3.33755L7.012 2.5972L6.01776 5.68025L8.31352 6.4206ZM6.34263 7.85256C6.44885 7.8528 6.60181 7.8541 6.73941 7.84294C6.89609 7.83024 7.11712 7.7969 7.35396 7.68197L6.30087 5.51179C6.36445 5.48094 6.4234 5.46217 6.47079 5.45117C6.51464 5.44098 6.5431 5.43875 6.54447 5.43864C6.54493 5.4386 6.53251 5.43955 6.4955 5.44007C6.45834 5.44059 6.41377 5.44052 6.34791 5.44038L6.34263 7.85256ZM6.01776 5.68025C5.99754 5.74293 5.98383 5.78535 5.97186 5.82052C5.95993 5.85556 5.95519 5.86708 5.95536 5.86666C5.95589 5.86539 5.96681 5.83901 5.99005 5.80045C6.01516 5.75878 6.05122 5.70852 6.10021 5.65758L7.83878 7.32972C8.02126 7.13999 8.12127 6.94007 8.18177 6.79499C8.23489 6.66757 8.28092 6.52169 8.31352 6.4206L6.01776 5.68025ZM7.35396 7.68197C7.53508 7.59408 7.69922 7.47482 7.83878 7.32972L6.10021 5.65758C6.15797 5.59753 6.2259 5.54817 6.30087 5.51179L7.35396 7.68197ZM3.30688 7.21895C3.12068 7.08428 2.96933 6.97477 2.8416 6.87897C2.71249 6.78212 2.62744 6.71405 2.57104 6.66423C2.50923 6.60964 2.51959 6.6096 2.55114 6.65466C2.58634 6.70491 2.6848 6.86443 2.69421 7.10992L0.283789 7.20227C0.297855 7.56941 0.445719 7.85337 0.57535 8.03846C0.70134 8.21834 0.851163 8.36353 0.974146 8.47216C1.21389 8.68392 1.54821 8.92396 1.89325 9.17351L3.30688 7.21895ZM3.10857 5.4333C2.68275 5.43237 2.27119 5.43005 1.95276 5.46044C1.78941 5.47603 1.58286 5.50542 1.3752 5.57689C1.16153 5.65043 0.874993 5.79324 0.647805 6.08199L2.54356 7.57356C2.39165 7.76663 2.21823 7.83781 2.16021 7.85777C2.1082 7.87567 2.09984 7.86955 2.18193 7.86172C2.25685 7.85457 2.36566 7.84949 2.52704 7.84704C2.68669 7.84461 2.87351 7.84498 3.1033 7.84548L3.10857 5.4333ZM2.69421 7.10992C2.70063 7.27745 2.64723 7.4418 2.54356 7.57356L0.647805 6.08199C0.397314 6.40036 0.268279 6.79747 0.283789 7.20227L2.69421 7.10992ZM6.68457 11.4343C6.71761 11.3333 6.76611 11.1883 6.79802 11.054C6.83435 10.901 6.87094 10.6805 6.83483 10.4198L4.44545 10.7507C4.43575 10.6807 4.43612 10.6188 4.44029 10.5704C4.44416 10.5255 4.45083 10.4977 4.45115 10.4964C4.45126 10.496 4.44832 10.5081 4.43738 10.5434C4.42639 10.5789 4.41256 10.6213 4.39207 10.6839L6.68457 11.4343ZM4.51817 11.072C4.57153 11.1106 4.60763 11.1367 4.63738 11.159C4.66702 11.1812 4.67651 11.1892 4.67616 11.1889C4.67511 11.188 4.6534 11.1695 4.62391 11.1355C4.59204 11.0987 4.55539 11.0489 4.52208 10.9866L6.64965 9.84985C6.52561 9.61767 6.3664 9.46079 6.24712 9.35842C6.14236 9.26852 6.01786 9.17966 5.9318 9.11742L4.51817 11.072ZM6.83483 10.4198C6.80721 10.2204 6.74452 10.0274 6.64965 9.84985L4.52208 10.9866C4.48282 10.9131 4.45688 10.8332 4.44545 10.7507L6.83483 10.4198ZM5.14385 14.1259C4.95823 14.2613 4.80731 14.3715 4.67672 14.4633C4.54471 14.5562 4.45368 14.6161 4.38887 14.6543C4.31785 14.6963 4.32101 14.6864 4.37361 14.6703C4.43227 14.6524 4.61441 14.608 4.85081 14.6749L4.19387 16.9959C4.5474 17.096 4.86316 17.0431 5.07925 16.977C5.28927 16.9127 5.47364 16.8151 5.61496 16.7317C5.89044 16.5691 6.22204 16.3253 6.56601 16.0742L5.14385 14.1259ZM3.38431 13.7627C3.25184 14.1674 3.12246 14.5581 3.05296 14.8704C3.01732 15.0305 2.98144 15.2361 2.98525 15.4557C2.98916 15.6816 3.03644 15.9983 3.24087 16.3036L5.24522 14.9615C5.38191 15.1656 5.39601 15.3525 5.39707 15.4139C5.39803 15.4689 5.38963 15.4749 5.40754 15.3944C5.42389 15.321 5.45269 15.2159 5.50022 15.0616C5.54725 14.909 5.60533 14.7315 5.67682 14.5131L3.38431 13.7627ZM4.85081 14.6749C5.01213 14.7206 5.15194 14.8221 5.24522 14.9615L3.24087 16.3036C3.46626 16.6402 3.80408 16.8856 4.19387 16.9959L4.85081 14.6749ZM10.1965 12.2161C10.1107 12.1534 9.98771 12.0625 9.86983 11.9906C9.73561 11.9088 9.53719 11.8058 9.27802 11.7596L8.85436 14.1343C8.78478 14.1219 8.72606 14.1024 8.68125 14.0835C8.63979 14.0659 8.61545 14.051 8.61428 14.0503C8.61388 14.05 8.62449 14.0566 8.65474 14.0779C8.68511 14.0993 8.72113 14.1256 8.77433 14.1644L10.1965 12.2161ZM9.18243 14.1644C9.23562 14.1256 9.27165 14.0993 9.30201 14.0779C9.33226 14.0566 9.34287 14.05 9.34248 14.0503C9.3413 14.051 9.31697 14.0659 9.2755 14.0835C9.23069 14.1024 9.17197 14.1219 9.10239 14.1343L8.67873 11.7596C8.41957 11.8058 8.22115 11.9088 8.08692 11.9906C7.96904 12.0625 7.84606 12.1534 7.76026 12.2161L9.18243 14.1644ZM9.27802 11.7596C9.07982 11.7242 8.87693 11.7242 8.67873 11.7596L9.10239 14.1343C9.02036 14.1489 8.93639 14.1489 8.85436 14.1343L9.27802 11.7596ZM12.2799 14.5131C12.3514 14.7315 12.4095 14.909 12.4565 15.0616C12.5041 15.2159 12.5329 15.321 12.5492 15.3944C12.5671 15.4749 12.5587 15.4689 12.5597 15.4139C12.5607 15.3525 12.5748 15.1656 12.7115 14.9615L14.7159 16.3036C14.9203 15.9983 14.9676 15.6816 14.9715 15.4557C14.9753 15.2361 14.9394 15.0305 14.9038 14.8704C14.8343 14.5581 14.7049 14.1674 14.5724 13.7627L12.2799 14.5131ZM11.3907 16.0742C11.7347 16.3253 12.0663 16.5691 12.3418 16.7317C12.4831 16.8151 12.6675 16.9127 12.8775 16.977C13.0936 17.0431 13.4094 17.096 13.7629 16.9959L13.1059 14.6749C13.3423 14.608 13.5245 14.6524 13.5831 14.6703C13.6357 14.6864 13.6389 14.6963 13.5679 14.6543C13.5031 14.6161 13.412 14.5562 13.28 14.4633C13.1494 14.3715 12.9985 14.2613 12.8129 14.1259L11.3907 16.0742ZM12.7115 14.9615C12.8048 14.8221 12.9446 14.7206 13.1059 14.6749L13.7629 16.9959C14.1527 16.8856 14.4905 16.6402 14.7159 16.3036L12.7115 14.9615ZM12.025 9.11742C11.9389 9.17966 11.8144 9.26852 11.7096 9.35842C11.5904 9.46079 11.4311 9.61767 11.3071 9.84985L13.4347 10.9866C13.4014 11.0489 13.3647 11.0987 13.3328 11.1355C13.3034 11.1695 13.2816 11.188 13.2806 11.1889C13.2802 11.1892 13.2897 11.1812 13.3194 11.159C13.3491 11.1367 13.3852 11.1106 13.4386 11.072L12.025 9.11742ZM13.5647 10.6839C13.5442 10.6213 13.5304 10.5789 13.5194 10.5434C13.5084 10.5081 13.5055 10.496 13.5056 10.4964C13.5059 10.4977 13.5126 10.5255 13.5165 10.5704C13.5206 10.6188 13.521 10.6807 13.5113 10.7507L11.1219 10.4198C11.0858 10.6805 11.1224 10.901 11.1587 11.054C11.1906 11.1883 11.2391 11.3333 11.2722 11.4343L13.5647 10.6839ZM11.3071 9.84985C11.2122 10.0274 11.1495 10.2204 11.1219 10.4198L13.5113 10.7507C13.4999 10.8332 13.4739 10.9131 13.4347 10.9866L11.3071 9.84985ZM14.8535 7.84548C15.0833 7.84498 15.2701 7.84461 15.4297 7.84704C15.5911 7.84949 15.6999 7.85457 15.7748 7.86172C15.8569 7.86955 15.8486 7.87567 15.7965 7.85777C15.7385 7.83781 15.5651 7.76663 15.4132 7.57356L17.309 6.08199C17.0818 5.79324 16.7952 5.65043 16.5816 5.57689C16.3739 5.50542 16.1673 5.47603 16.004 5.46044C15.6856 5.43005 15.274 5.43237 14.8482 5.4333L14.8535 7.84548ZM16.0635 9.17351C16.4085 8.92396 16.7429 8.68392 16.9826 8.47216C17.1056 8.36353 17.2554 8.21835 17.3814 8.03846C17.511 7.85337 17.6589 7.56941 17.673 7.20227L15.2625 7.10992C15.272 6.86443 15.3704 6.70491 15.4056 6.65466C15.4372 6.6096 15.4475 6.60964 15.3857 6.66423C15.3293 6.71405 15.2443 6.78213 15.1152 6.87897C14.9874 6.97478 14.8361 7.08429 14.6499 7.21895L16.0635 9.17351ZM15.4132 7.57356C15.3095 7.4418 15.2561 7.27745 15.2625 7.10992L17.673 7.20227C17.6885 6.79747 17.5594 6.40036 17.309 6.08199L15.4132 7.57356ZM9.64323 6.4206C9.67583 6.5217 9.72186 6.66757 9.77499 6.79499C9.83548 6.94007 9.93549 7.13999 10.118 7.32972L11.8565 5.65758C11.9055 5.70852 11.9416 5.75878 11.9667 5.80045C11.9899 5.83901 12.0009 5.86539 12.0014 5.86666C12.0016 5.86708 11.9968 5.85556 11.9849 5.82052C11.9729 5.78535 11.9592 5.74293 11.939 5.68025L9.64323 6.4206ZM11.6088 5.44038C11.543 5.44052 11.4984 5.44059 11.4613 5.44007C11.4242 5.43955 11.4118 5.4386 11.4123 5.43864C11.4137 5.43875 11.4421 5.44098 11.486 5.45117C11.5334 5.46217 11.5923 5.48094 11.6559 5.51179L10.6028 7.68197C10.8396 7.7969 11.0607 7.83024 11.2173 7.84294C11.3549 7.8541 11.5079 7.8528 11.6141 7.85256L11.6088 5.44038ZM10.118 7.32972C10.2575 7.47482 10.4217 7.59408 10.6028 7.68197L11.6559 5.51179C11.7309 5.54817 11.7988 5.59753 11.8565 5.65758L10.118 7.32972ZM10.9448 2.5972C10.814 2.19189 10.6891 1.79973 10.5618 1.50626C10.4965 1.35572 10.4047 1.16835 10.2725 0.992927C10.1366 0.812438 9.9122 0.584037 9.56736 0.457191L8.73462 2.72108C8.50403 2.63627 8.38275 2.49331 8.34584 2.44431C8.31275 2.40038 8.31599 2.39055 8.34881 2.46621C8.37876 2.53526 8.41723 2.63719 8.46943 2.78993C8.52107 2.94103 8.57845 3.11883 8.64899 3.33756L10.9448 2.5972ZM9.30777 3.33755C9.3783 3.11883 9.43568 2.94103 9.48733 2.78993C9.53953 2.63719 9.57799 2.53526 9.60794 2.46621C9.64077 2.39055 9.64401 2.40038 9.61091 2.44431C9.574 2.49331 9.45272 2.63627 9.22214 2.72108L8.3894 0.457191C8.04455 0.584037 7.82018 0.812437 7.68422 0.992927C7.55207 1.16835 7.4603 1.35572 7.39499 1.50626C7.26769 1.79973 7.14271 2.19189 7.012 2.5972L9.30777 3.33755ZM9.56736 0.457191C9.18716 0.317339 8.7696 0.317339 8.3894 0.457191L9.22214 2.72108C9.06478 2.77896 8.89197 2.77896 8.73462 2.72108L9.56736 0.457191Z" fill="white" mask="url(#path-1-outside-1_18_628)"/>
</svg>
