<svg width="14" height="14" viewBox="0 0 14 14" fill="none" xmlns="http://www.w3.org/2000/svg">
<g clip-path="url(#clip0_18_1623)">
<path d="M7.48997 1.08992L9.07997 4.29992C9.11613 4.38139 9.17302 4.45197 9.24496 4.5046C9.3169 4.55724 9.40137 4.59011 9.48997 4.59992L13 5.11992C13.1016 5.13298 13.1974 5.17469 13.2762 5.24017C13.355 5.30566 13.4136 5.39221 13.4451 5.48973C13.4765 5.58725 13.4796 5.69171 13.4539 5.7909C13.4282 5.89009 13.3748 5.97993 13.3 6.04992L10.77 8.55992C10.7054 8.62025 10.6569 8.69576 10.629 8.77959C10.6011 8.86343 10.5945 8.95291 10.61 9.03992L11.22 12.5699C11.2376 12.6714 11.2265 12.7757 11.1878 12.8711C11.149 12.9665 11.0843 13.0491 11.001 13.1096C10.9176 13.17 10.819 13.2058 10.7162 13.2129C10.6135 13.2201 10.5109 13.1982 10.42 13.1499L7.25997 11.4799C7.17906 11.4402 7.09011 11.4195 6.99997 11.4195C6.90983 11.4195 6.82089 11.4402 6.73997 11.4799L3.57997 13.1499C3.48906 13.1982 3.38641 13.2201 3.2837 13.2129C3.18099 13.2058 3.08234 13.17 2.99899 13.1096C2.91563 13.0491 2.85091 12.9665 2.81219 12.8711C2.77347 12.7757 2.76231 12.6714 2.77997 12.5699L3.38997 8.99992C3.40543 8.91291 3.39889 8.82343 3.37095 8.73959C3.343 8.65576 3.29454 8.58025 3.22997 8.51992L0.669972 6.04992C0.594235 5.97802 0.540972 5.88569 0.516636 5.78413C0.4923 5.68258 0.497936 5.57614 0.532859 5.47772C0.567783 5.3793 0.630496 5.29311 0.713403 5.22961C0.79631 5.1661 0.895852 5.128 0.999972 5.11992L4.50997 4.59992C4.59857 4.59011 4.68305 4.55724 4.75499 4.5046C4.82692 4.45197 4.88381 4.38139 4.91997 4.29992L6.50997 1.08992C6.55327 0.996428 6.62241 0.917275 6.70924 0.861803C6.79606 0.806331 6.89694 0.776855 6.99997 0.776855C7.103 0.776855 7.20388 0.806331 7.29071 0.861803C7.37753 0.917275 7.44667 0.996428 7.48997 1.08992Z" stroke="#FFC700" stroke-linecap="round" stroke-linejoin="round"/>
<path d="M7.49016 1.08992L8 5C7.29089 3.40238 7.63169 4.1702 8 5C8.10163 5.01306 9.92119 8.93452 10 9C10.0788 9.06548 6.9687 5.9524 7.00016 6.04992C3.54609 6.19705 7.03161 6.14744 7.00016 6.04992C1.68417 6.30894 7.075 5.97993 7.00016 6.04992L10 9C9.93543 9.06033 10.0279 8.95609 10 9.03992C9.97206 9.12375 9.98454 8.95292 10 9.03992L11.2202 12.5699C11.2378 12.6714 11.2267 12.7757 11.1879 12.8711C11.1492 12.9665 11.0845 13.0491 11.0011 13.1096C10.9178 13.17 10.8191 13.2058 10.7164 13.2129C10.6137 13.2201 10.5111 13.1982 10.4202 13.1499L7.26016 11.4799C7.17924 11.4402 7.0903 11.4195 7.00016 11.4195C6.91001 11.4195 6.82107 11.4402 6.74016 11.4799L3.58016 13.1499C3.48924 13.1982 3.38659 13.2201 3.28388 13.2129C3.18117 13.2058 3.08253 13.17 2.99917 13.1096C2.91581 13.0491 2.85109 12.9665 2.81238 12.8711C2.77366 12.7757 2.76249 12.6714 2.78016 12.5699L3.39016 8.99992C3.40562 8.91292 3.39908 8.82343 3.37113 8.73959C3.34319 8.65576 3.29473 8.58025 3.23016 8.51992L0.670155 6.04992C0.594418 5.97802 0.541155 5.88569 0.516819 5.78413C0.492483 5.68258 0.498119 5.57614 0.533042 5.47772C0.567966 5.3793 0.630679 5.29311 0.713586 5.22961C0.796493 5.1661 0.896035 5.128 1.00016 5.11992L4.51016 4.59992C4.59875 4.59011 4.68323 4.55724 4.75517 4.5046C4.82711 4.45197 4.88399 4.38139 4.92016 4.29992L6.51016 1.08992C6.55345 0.996428 6.6226 0.917275 6.70942 0.861803C6.79624 0.806331 6.89712 0.776855 7.00016 0.776855C7.10319 0.776855 7.20407 0.806331 7.29089 0.861803C7.37771 0.917275 7.44686 0.996428 7.49016 1.08992Z" fill="#FFC700"/>
<path d="M8 5L7.49016 1.08992C7.44686 0.996428 7.37771 0.917275 7.29089 0.861803C7.20407 0.806331 7.10319 0.776855 7.00016 0.776855C6.89712 0.776855 6.79624 0.806331 6.70942 0.861803C6.6226 0.917275 6.55345 0.996428 6.51016 1.08992L4.92016 4.29992C4.88399 4.38139 4.82711 4.45197 4.75517 4.5046C4.68323 4.55724 4.59875 4.59011 4.51016 4.59992L1.00016 5.11992C0.896035 5.128 0.796493 5.1661 0.713586 5.22961C0.630679 5.29311 0.567966 5.3793 0.533042 5.47772C0.498119 5.57614 0.492483 5.68258 0.516819 5.78413C0.541155 5.88569 0.594418 5.97802 0.670155 6.04992L3.23016 8.51992C3.29473 8.58025 3.34319 8.65576 3.37113 8.73959C3.39908 8.82343 3.40562 8.91291 3.39016 8.99992L2.78016 12.5699C2.76249 12.6714 2.77366 12.7757 2.81238 12.8711C2.85109 12.9665 2.91581 13.0491 2.99917 13.1096C3.08253 13.17 3.18117 13.2058 3.28388 13.2129C3.38659 13.2201 3.48924 13.1982 3.58016 13.1499L6.74016 11.4799C6.82107 11.4402 6.91001 11.4195 7.00016 11.4195C7.0903 11.4195 7.17924 11.4402 7.26016 11.4799L10.4202 13.1499C10.5111 13.1982 10.6137 13.2201 10.7164 13.2129C10.8191 13.2058 10.9178 13.17 11.0011 13.1096C11.0845 13.0491 11.1492 12.9665 11.1879 12.8711C11.2267 12.7757 11.2378 12.6714 11.2202 12.5699L10 9.03992M8 5C7.63169 4.1702 7.29089 3.40238 8 5ZM8 5C8.10163 5.01306 9.92119 8.93452 10 9M10 9C10.0788 9.06548 6.9687 5.9524 7.00016 6.04992M10 9L7.00016 6.04992M10 9C9.93543 9.06033 10.0279 8.95609 10 9.03992M7.00016 6.04992C7.03161 6.14744 3.54609 6.19705 7.00016 6.04992ZM7.00016 6.04992C1.68417 6.30894 7.075 5.97993 7.00016 6.04992ZM10 9.03992C9.97206 9.12375 9.98454 8.95291 10 9.03992Z" stroke="#FFC700" stroke-linecap="round" stroke-linejoin="round"/>
</g>
<defs>
<clipPath id="clip0_18_1623">
<rect width="14" height="14" fill="white"/>
</clipPath>
</defs>
</svg>
