<svg width="14" height="14" viewBox="0 0 14 14" fill="none" xmlns="http://www.w3.org/2000/svg">
<g clip-path="url(#clip0_18_1621)">
<path d="M7.48997 1.08992L9.07997 4.29992C9.11613 4.38139 9.17302 4.45197 9.24496 4.5046C9.3169 4.55724 9.40137 4.59011 9.48997 4.59992L13 5.11992C13.1016 5.13298 13.1974 5.17469 13.2762 5.24017C13.355 5.30566 13.4136 5.39221 13.4451 5.48973C13.4765 5.58725 13.4796 5.69171 13.4539 5.7909C13.4282 5.89009 13.3748 5.97993 13.3 6.04992L10.77 8.55992C10.7054 8.62025 10.6569 8.69576 10.629 8.77959C10.6011 8.86343 10.5945 8.95292 10.61 9.03992L11.22 12.5699C11.2376 12.6714 11.2265 12.7757 11.1878 12.8711C11.149 12.9665 11.0843 13.0491 11.001 13.1096C10.9176 13.17 10.819 13.2058 10.7162 13.2129C10.6135 13.2201 10.5109 13.1982 10.42 13.1499L7.25997 11.4799C7.17906 11.4402 7.09011 11.4195 6.99997 11.4195C6.90983 11.4195 6.82089 11.4402 6.73997 11.4799L3.57997 13.1499C3.48906 13.1982 3.38641 13.2201 3.2837 13.2129C3.18099 13.2058 3.08234 13.17 2.99899 13.1096C2.91563 13.0491 2.85091 12.9665 2.81219 12.8711C2.77347 12.7757 2.76231 12.6714 2.77997 12.5699L3.38997 8.99992C3.40543 8.91292 3.39889 8.82343 3.37095 8.73959C3.343 8.65576 3.29454 8.58025 3.22997 8.51992L0.669972 6.04992C0.594235 5.97802 0.540972 5.88569 0.516636 5.78413C0.4923 5.68258 0.497936 5.57614 0.532859 5.47772C0.567783 5.3793 0.630496 5.29311 0.713403 5.22961C0.79631 5.1661 0.895852 5.128 0.999972 5.11992L4.50997 4.59992C4.59857 4.59011 4.68305 4.55724 4.75499 4.5046C4.82692 4.45197 4.88381 4.38139 4.91997 4.29992L6.50997 1.08992C6.55327 0.996428 6.62241 0.917275 6.70924 0.861803C6.79606 0.806331 6.89694 0.776855 6.99997 0.776855C7.103 0.776855 7.20388 0.806331 7.29071 0.861803C7.37753 0.917275 7.44667 0.996428 7.48997 1.08992Z" fill="#FFC700" stroke="#FFC700" stroke-linecap="round" stroke-linejoin="round"/>
</g>
<defs>
<clipPath id="clip0_18_1621">
<rect width="14" height="14" fill="white"/>
</clipPath>
</defs>
</svg>
